<mxfile host="Electron" agent="Mozilla/5.0 (Windows NT 10.0; Win64; x64) AppleWebKit/537.36 (KHTML, like Gecko) draw.io/24.7.17 Chrome/128.0.6613.36 Electron/32.0.1 Safari/537.36" version="24.7.17">
  <diagram name="Page-1" id="rSCj_LUOKC8hmFgoFRef">
    <mxGraphModel dx="1900" dy="621" grid="1" gridSize="10" guides="1" tooltips="1" connect="1" arrows="1" fold="1" page="1" pageScale="1" pageWidth="850" pageHeight="1100" math="0" shadow="0">
      <root>
        <mxCell id="0" />
        <mxCell id="1" parent="0" />
        <mxCell id="Z48n8Z-hnVd7AuyeqPhM-1" value="&lt;u&gt;id&lt;/u&gt;" style="ellipse;whiteSpace=wrap;html=1;" parent="1" vertex="1">
          <mxGeometry x="-290" y="240" width="50" height="30" as="geometry" />
        </mxCell>
        <mxCell id="Z48n8Z-hnVd7AuyeqPhM-3" value="Blog" style="rounded=0;whiteSpace=wrap;html=1;" parent="1" vertex="1">
          <mxGeometry x="-270" y="310" width="40" height="30" as="geometry" />
        </mxCell>
        <mxCell id="Z48n8Z-hnVd7AuyeqPhM-4" value="title" style="ellipse;whiteSpace=wrap;html=1;" parent="1" vertex="1">
          <mxGeometry x="-200" y="360" width="50" height="30" as="geometry" />
        </mxCell>
        <mxCell id="Z48n8Z-hnVd7AuyeqPhM-5" value="sub&amp;nbsp;&lt;div&gt;title&lt;/div&gt;" style="ellipse;whiteSpace=wrap;html=1;" parent="1" vertex="1">
          <mxGeometry x="-190" y="250" width="50" height="30" as="geometry" />
        </mxCell>
        <mxCell id="Z48n8Z-hnVd7AuyeqPhM-6" value="content" style="ellipse;whiteSpace=wrap;html=1;" parent="1" vertex="1">
          <mxGeometry x="-120" y="270" width="50" height="30" as="geometry" />
        </mxCell>
        <mxCell id="Z48n8Z-hnVd7AuyeqPhM-7" value="clap count" style="ellipse;whiteSpace=wrap;html=1;" parent="1" vertex="1">
          <mxGeometry x="-130" y="320" width="50" height="30" as="geometry" />
        </mxCell>
        <mxCell id="Z48n8Z-hnVd7AuyeqPhM-8" value="comment&lt;div&gt;count&lt;/div&gt;" style="ellipse;whiteSpace=wrap;html=1;" parent="1" vertex="1">
          <mxGeometry x="-200" y="360" width="60" height="30" as="geometry" />
        </mxCell>
        <mxCell id="Z48n8Z-hnVd7AuyeqPhM-9" value="image" style="ellipse;whiteSpace=wrap;html=1;" parent="1" vertex="1">
          <mxGeometry x="-195" y="410" width="50" height="30" as="geometry" />
        </mxCell>
        <mxCell id="Z48n8Z-hnVd7AuyeqPhM-10" value="tags" style="ellipse;whiteSpace=wrap;html=1;" parent="1" vertex="1">
          <mxGeometry x="-275" y="390" width="50" height="30" as="geometry" />
        </mxCell>
        <mxCell id="Z48n8Z-hnVd7AuyeqPhM-11" value="user_id" style="ellipse;whiteSpace=wrap;html=1;" parent="1" vertex="1">
          <mxGeometry x="-350" y="370" width="50" height="30" as="geometry" />
        </mxCell>
        <mxCell id="Z48n8Z-hnVd7AuyeqPhM-12" value="created at" style="ellipse;whiteSpace=wrap;html=1;" parent="1" vertex="1">
          <mxGeometry x="-350" y="280" width="50" height="30" as="geometry" />
        </mxCell>
        <mxCell id="Z48n8Z-hnVd7AuyeqPhM-13" value="updated at" style="ellipse;whiteSpace=wrap;html=1;" parent="1" vertex="1">
          <mxGeometry x="-370" y="320" width="50" height="30" as="geometry" />
        </mxCell>
        <mxCell id="Z48n8Z-hnVd7AuyeqPhM-14" value="clap" style="rounded=0;whiteSpace=wrap;html=1;" parent="1" vertex="1">
          <mxGeometry x="-240" y="65" width="40" height="20" as="geometry" />
        </mxCell>
        <mxCell id="Z48n8Z-hnVd7AuyeqPhM-15" value="&lt;u&gt;id&lt;/u&gt;" style="ellipse;whiteSpace=wrap;html=1;" parent="1" vertex="1">
          <mxGeometry x="-255" y="20" width="40" height="30" as="geometry" />
        </mxCell>
        <mxCell id="Z48n8Z-hnVd7AuyeqPhM-16" value="user_id" style="ellipse;whiteSpace=wrap;html=1;" parent="1" vertex="1">
          <mxGeometry x="-205" y="20" width="50" height="30" as="geometry" />
        </mxCell>
        <mxCell id="Z48n8Z-hnVd7AuyeqPhM-17" value="blog_id" style="ellipse;whiteSpace=wrap;html=1;" parent="1" vertex="1">
          <mxGeometry x="-190" y="60" width="50" height="30" as="geometry" />
        </mxCell>
        <mxCell id="Z48n8Z-hnVd7AuyeqPhM-18" value="comment" style="rounded=0;whiteSpace=wrap;html=1;" parent="1" vertex="1">
          <mxGeometry x="-510" y="70" width="60" height="25" as="geometry" />
        </mxCell>
        <mxCell id="Z48n8Z-hnVd7AuyeqPhM-19" value="&lt;u&gt;id&lt;/u&gt;" style="ellipse;whiteSpace=wrap;html=1;" parent="1" vertex="1">
          <mxGeometry x="-550" y="20" width="40" height="30" as="geometry" />
        </mxCell>
        <mxCell id="Z48n8Z-hnVd7AuyeqPhM-20" value="user_id" style="ellipse;whiteSpace=wrap;html=1;" parent="1" vertex="1">
          <mxGeometry x="-490" y="20" width="50" height="30" as="geometry" />
        </mxCell>
        <mxCell id="Z48n8Z-hnVd7AuyeqPhM-21" value="blog_id" style="ellipse;whiteSpace=wrap;html=1;" parent="1" vertex="1">
          <mxGeometry x="-410" y="20" width="50" height="30" as="geometry" />
        </mxCell>
        <mxCell id="Z48n8Z-hnVd7AuyeqPhM-22" value="content" style="ellipse;whiteSpace=wrap;html=1;" parent="1" vertex="1">
          <mxGeometry x="-430" y="110" width="50" height="30" as="geometry" />
        </mxCell>
        <mxCell id="Z48n8Z-hnVd7AuyeqPhM-23" value="history" style="rounded=0;whiteSpace=wrap;html=1;" parent="1" vertex="1">
          <mxGeometry x="-555" y="320" width="60" height="25" as="geometry" />
        </mxCell>
        <mxCell id="Z48n8Z-hnVd7AuyeqPhM-24" value="&lt;u&gt;id&lt;/u&gt;" style="ellipse;whiteSpace=wrap;html=1;" parent="1" vertex="1">
          <mxGeometry x="-625" y="317.5" width="50" height="30" as="geometry" />
        </mxCell>
        <mxCell id="Z48n8Z-hnVd7AuyeqPhM-25" value="user_id" style="ellipse;whiteSpace=wrap;html=1;" parent="1" vertex="1">
          <mxGeometry x="-545" y="280" width="50" height="30" as="geometry" />
        </mxCell>
        <mxCell id="Z48n8Z-hnVd7AuyeqPhM-26" value="blog_id" style="ellipse;whiteSpace=wrap;html=1;" parent="1" vertex="1">
          <mxGeometry x="-485" y="280" width="50" height="30" as="geometry" />
        </mxCell>
        <mxCell id="Z48n8Z-hnVd7AuyeqPhM-27" value="read later" style="rounded=0;whiteSpace=wrap;html=1;" parent="1" vertex="1">
          <mxGeometry x="-830" y="440" width="60" height="30" as="geometry" />
        </mxCell>
        <mxCell id="Z48n8Z-hnVd7AuyeqPhM-28" value="&lt;u&gt;id&lt;/u&gt;" style="ellipse;whiteSpace=wrap;html=1;" parent="1" vertex="1">
          <mxGeometry x="-754" y="470" width="45" height="30" as="geometry" />
        </mxCell>
        <mxCell id="Z48n8Z-hnVd7AuyeqPhM-29" value="user_id" style="ellipse;whiteSpace=wrap;html=1;" parent="1" vertex="1">
          <mxGeometry x="-825" y="490" width="50" height="30" as="geometry" />
        </mxCell>
        <mxCell id="Z48n8Z-hnVd7AuyeqPhM-31" value="follower" style="rounded=0;whiteSpace=wrap;html=1;" parent="1" vertex="1">
          <mxGeometry x="-578" y="178" width="60" height="25" as="geometry" />
        </mxCell>
        <mxCell id="Z48n8Z-hnVd7AuyeqPhM-32" value="follower_id" style="ellipse;whiteSpace=wrap;html=1;" parent="1" vertex="1">
          <mxGeometry x="-625" y="110" width="70" height="30" as="geometry" />
        </mxCell>
        <mxCell id="Z48n8Z-hnVd7AuyeqPhM-33" value="followed_id" style="ellipse;whiteSpace=wrap;html=1;" parent="1" vertex="1">
          <mxGeometry x="-548" y="128" width="65" height="30" as="geometry" />
        </mxCell>
        <mxCell id="Z48n8Z-hnVd7AuyeqPhM-35" value="notification" style="rounded=0;whiteSpace=wrap;html=1;" parent="1" vertex="1">
          <mxGeometry x="-784" y="267" width="70" height="30" as="geometry" />
        </mxCell>
        <mxCell id="Z48n8Z-hnVd7AuyeqPhM-37" value="user_id" style="ellipse;whiteSpace=wrap;html=1;" parent="1" vertex="1">
          <mxGeometry x="-730" y="315" width="50" height="20" as="geometry" />
        </mxCell>
        <mxCell id="Z48n8Z-hnVd7AuyeqPhM-38" value="title" style="ellipse;whiteSpace=wrap;html=1;" parent="1" vertex="1">
          <mxGeometry x="-756.5" y="220" width="50" height="20" as="geometry" />
        </mxCell>
        <mxCell id="Z48n8Z-hnVd7AuyeqPhM-39" value="body" style="ellipse;whiteSpace=wrap;html=1;" parent="1" vertex="1">
          <mxGeometry x="-714" y="240" width="40" height="20" as="geometry" />
        </mxCell>
        <mxCell id="Z48n8Z-hnVd7AuyeqPhM-40" value="user" style="rounded=0;whiteSpace=wrap;html=1;" parent="1" vertex="1">
          <mxGeometry x="-785" y="70" width="50" height="20" as="geometry" />
        </mxCell>
        <mxCell id="Z48n8Z-hnVd7AuyeqPhM-41" value="&lt;u&gt;id&lt;/u&gt;" style="ellipse;whiteSpace=wrap;html=1;" parent="1" vertex="1">
          <mxGeometry x="-845" y="65" width="40" height="25" as="geometry" />
        </mxCell>
        <mxCell id="Z48n8Z-hnVd7AuyeqPhM-42" value="name" style="ellipse;whiteSpace=wrap;html=1;" parent="1" vertex="1">
          <mxGeometry x="-805" y="20" width="50" height="30" as="geometry" />
        </mxCell>
        <mxCell id="Z48n8Z-hnVd7AuyeqPhM-43" value="email" style="ellipse;whiteSpace=wrap;html=1;" parent="1" vertex="1">
          <mxGeometry x="-725" y="10" width="50" height="30" as="geometry" />
        </mxCell>
        <mxCell id="Z48n8Z-hnVd7AuyeqPhM-44" value="password" style="ellipse;whiteSpace=wrap;html=1;" parent="1" vertex="1">
          <mxGeometry x="-725" y="100" width="50" height="30" as="geometry" />
        </mxCell>
        <mxCell id="6WczsIn22DoI0dGNfMC2-1" value="" style="endArrow=none;html=1;rounded=0;exitX=0.5;exitY=0;exitDx=0;exitDy=0;entryX=0.683;entryY=1.067;entryDx=0;entryDy=0;entryPerimeter=0;" parent="1" source="Z48n8Z-hnVd7AuyeqPhM-40" target="Z48n8Z-hnVd7AuyeqPhM-42" edge="1">
          <mxGeometry width="50" height="50" relative="1" as="geometry">
            <mxPoint x="-815" y="90" as="sourcePoint" />
            <mxPoint x="-765" y="40" as="targetPoint" />
          </mxGeometry>
        </mxCell>
        <mxCell id="lyOyuYBK9qZ7ddT24PDy-2" value="" style="endArrow=none;html=1;rounded=0;exitX=1;exitY=0;exitDx=0;exitDy=0;" parent="1" source="Z48n8Z-hnVd7AuyeqPhM-40" edge="1">
          <mxGeometry width="50" height="50" relative="1" as="geometry">
            <mxPoint x="-755" y="80" as="sourcePoint" />
            <mxPoint x="-715" y="40" as="targetPoint" />
            <Array as="points">
              <mxPoint x="-725" y="60" />
            </Array>
          </mxGeometry>
        </mxCell>
        <mxCell id="lyOyuYBK9qZ7ddT24PDy-3" value="" style="endArrow=none;html=1;rounded=0;entryX=0;entryY=1;entryDx=0;entryDy=0;exitX=1;exitY=1;exitDx=0;exitDy=0;" parent="1" source="Z48n8Z-hnVd7AuyeqPhM-41" target="Z48n8Z-hnVd7AuyeqPhM-40" edge="1">
          <mxGeometry width="50" height="50" relative="1" as="geometry">
            <mxPoint x="-850" y="150" as="sourcePoint" />
            <mxPoint x="-800" y="100" as="targetPoint" />
          </mxGeometry>
        </mxCell>
        <mxCell id="lyOyuYBK9qZ7ddT24PDy-6" value="" style="endArrow=none;html=1;rounded=0;exitX=1;exitY=0.75;exitDx=0;exitDy=0;entryX=0;entryY=0;entryDx=0;entryDy=0;" parent="1" source="Z48n8Z-hnVd7AuyeqPhM-40" target="Z48n8Z-hnVd7AuyeqPhM-44" edge="1">
          <mxGeometry width="50" height="50" relative="1" as="geometry">
            <mxPoint x="-765" y="130" as="sourcePoint" />
            <mxPoint x="-725" y="80" as="targetPoint" />
          </mxGeometry>
        </mxCell>
        <mxCell id="lyOyuYBK9qZ7ddT24PDy-7" value="" style="endArrow=none;html=1;rounded=0;exitX=0.5;exitY=1;exitDx=0;exitDy=0;" parent="1" source="Z48n8Z-hnVd7AuyeqPhM-32" edge="1">
          <mxGeometry width="50" height="50" relative="1" as="geometry">
            <mxPoint x="-623" y="228" as="sourcePoint" />
            <mxPoint x="-573" y="178" as="targetPoint" />
          </mxGeometry>
        </mxCell>
        <mxCell id="lyOyuYBK9qZ7ddT24PDy-8" value="" style="endArrow=none;html=1;rounded=0;" parent="1" edge="1">
          <mxGeometry width="50" height="50" relative="1" as="geometry">
            <mxPoint x="-543" y="178" as="sourcePoint" />
            <mxPoint x="-523" y="158" as="targetPoint" />
          </mxGeometry>
        </mxCell>
        <mxCell id="lyOyuYBK9qZ7ddT24PDy-9" value="" style="endArrow=none;html=1;rounded=0;exitX=0.5;exitY=1;exitDx=0;exitDy=0;" parent="1" source="Z48n8Z-hnVd7AuyeqPhM-19" edge="1">
          <mxGeometry width="50" height="50" relative="1" as="geometry">
            <mxPoint x="-560" y="120" as="sourcePoint" />
            <mxPoint x="-510" y="70" as="targetPoint" />
          </mxGeometry>
        </mxCell>
        <mxCell id="lyOyuYBK9qZ7ddT24PDy-10" value="" style="endArrow=none;html=1;rounded=0;" parent="1" edge="1">
          <mxGeometry width="50" height="50" relative="1" as="geometry">
            <mxPoint x="-480" y="70" as="sourcePoint" />
            <mxPoint x="-460" y="50" as="targetPoint" />
          </mxGeometry>
        </mxCell>
        <mxCell id="lyOyuYBK9qZ7ddT24PDy-11" value="" style="endArrow=none;html=1;rounded=0;exitX=1;exitY=0;exitDx=0;exitDy=0;exitPerimeter=0;" parent="1" source="Z48n8Z-hnVd7AuyeqPhM-18" edge="1">
          <mxGeometry width="50" height="50" relative="1" as="geometry">
            <mxPoint x="-460" y="90" as="sourcePoint" />
            <mxPoint x="-410" y="40" as="targetPoint" />
          </mxGeometry>
        </mxCell>
        <mxCell id="lyOyuYBK9qZ7ddT24PDy-15" value="" style="endArrow=none;html=1;rounded=0;exitX=0.75;exitY=0;exitDx=0;exitDy=0;entryX=0.5;entryY=1;entryDx=0;entryDy=0;" parent="1" source="Z48n8Z-hnVd7AuyeqPhM-35" target="Z48n8Z-hnVd7AuyeqPhM-38" edge="1">
          <mxGeometry width="50" height="50" relative="1" as="geometry">
            <mxPoint x="-749" y="297" as="sourcePoint" />
            <mxPoint x="-699" y="247" as="targetPoint" />
          </mxGeometry>
        </mxCell>
        <mxCell id="lyOyuYBK9qZ7ddT24PDy-16" value="" style="endArrow=none;html=1;rounded=0;exitX=1;exitY=0.5;exitDx=0;exitDy=0;entryX=0;entryY=1;entryDx=0;entryDy=0;" parent="1" source="Z48n8Z-hnVd7AuyeqPhM-35" target="Z48n8Z-hnVd7AuyeqPhM-39" edge="1">
          <mxGeometry width="50" height="50" relative="1" as="geometry">
            <mxPoint x="-719" y="317" as="sourcePoint" />
            <mxPoint x="-669" y="267" as="targetPoint" />
          </mxGeometry>
        </mxCell>
        <mxCell id="lyOyuYBK9qZ7ddT24PDy-17" value="" style="endArrow=none;html=1;rounded=0;exitX=0.9;exitY=0.75;exitDx=0;exitDy=0;exitPerimeter=0;entryX=0;entryY=0.5;entryDx=0;entryDy=0;" parent="1" source="Z48n8Z-hnVd7AuyeqPhM-24" target="Z48n8Z-hnVd7AuyeqPhM-23" edge="1">
          <mxGeometry width="50" height="50" relative="1" as="geometry">
            <mxPoint x="-570" y="340" as="sourcePoint" />
            <mxPoint x="-555" y="320" as="targetPoint" />
          </mxGeometry>
        </mxCell>
        <mxCell id="lyOyuYBK9qZ7ddT24PDy-19" value="" style="endArrow=none;html=1;rounded=0;exitX=1;exitY=0.5;exitDx=0;exitDy=0;" parent="1" source="Z48n8Z-hnVd7AuyeqPhM-23" edge="1">
          <mxGeometry width="50" height="50" relative="1" as="geometry">
            <mxPoint x="-505" y="360" as="sourcePoint" />
            <mxPoint x="-455" y="310" as="targetPoint" />
          </mxGeometry>
        </mxCell>
        <mxCell id="lyOyuYBK9qZ7ddT24PDy-22" value="" style="endArrow=none;html=1;rounded=0;exitX=1;exitY=0.5;exitDx=0;exitDy=0;" parent="1" source="Z48n8Z-hnVd7AuyeqPhM-30" edge="1">
          <mxGeometry width="50" height="50" relative="1" as="geometry">
            <mxPoint x="-752.5" y="490" as="sourcePoint" />
            <mxPoint x="-702.5" y="440" as="targetPoint" />
          </mxGeometry>
        </mxCell>
        <mxCell id="lyOyuYBK9qZ7ddT24PDy-23" value="" style="endArrow=none;html=1;rounded=0;exitX=0.5;exitY=0;exitDx=0;exitDy=0;" parent="1" source="Z48n8Z-hnVd7AuyeqPhM-14" edge="1">
          <mxGeometry width="50" height="50" relative="1" as="geometry">
            <mxPoint x="-290" y="100" as="sourcePoint" />
            <mxPoint x="-240" y="50" as="targetPoint" />
          </mxGeometry>
        </mxCell>
        <mxCell id="lyOyuYBK9qZ7ddT24PDy-24" value="" style="endArrow=none;html=1;rounded=0;exitX=1;exitY=0;exitDx=0;exitDy=0;" parent="1" source="Z48n8Z-hnVd7AuyeqPhM-14" edge="1">
          <mxGeometry width="50" height="50" relative="1" as="geometry">
            <mxPoint x="-230" y="100" as="sourcePoint" />
            <mxPoint x="-180" y="50" as="targetPoint" />
          </mxGeometry>
        </mxCell>
        <mxCell id="lyOyuYBK9qZ7ddT24PDy-26" value="" style="endArrow=none;html=1;rounded=0;" parent="1" edge="1">
          <mxGeometry width="50" height="50" relative="1" as="geometry">
            <mxPoint x="-200" y="80" as="sourcePoint" />
            <mxPoint x="-190" y="70" as="targetPoint" />
          </mxGeometry>
        </mxCell>
        <mxCell id="lyOyuYBK9qZ7ddT24PDy-27" value="" style="endArrow=none;html=1;rounded=0;entryX=0;entryY=1;entryDx=0;entryDy=0;" parent="1" target="Z48n8Z-hnVd7AuyeqPhM-3" edge="1">
          <mxGeometry width="50" height="50" relative="1" as="geometry">
            <mxPoint x="-320" y="370" as="sourcePoint" />
            <mxPoint x="-270" y="320" as="targetPoint" />
          </mxGeometry>
        </mxCell>
        <mxCell id="lyOyuYBK9qZ7ddT24PDy-28" value="" style="endArrow=none;html=1;rounded=0;exitX=1;exitY=0.5;exitDx=0;exitDy=0;" parent="1" source="Z48n8Z-hnVd7AuyeqPhM-13" edge="1">
          <mxGeometry width="50" height="50" relative="1" as="geometry">
            <mxPoint x="-320" y="370" as="sourcePoint" />
            <mxPoint x="-270" y="320" as="targetPoint" />
          </mxGeometry>
        </mxCell>
        <mxCell id="lyOyuYBK9qZ7ddT24PDy-29" value="" style="endArrow=none;html=1;rounded=0;exitX=1;exitY=1;exitDx=0;exitDy=0;" parent="1" source="Z48n8Z-hnVd7AuyeqPhM-12" edge="1">
          <mxGeometry width="50" height="50" relative="1" as="geometry">
            <mxPoint x="-320" y="360" as="sourcePoint" />
            <mxPoint x="-270" y="310" as="targetPoint" />
          </mxGeometry>
        </mxCell>
        <mxCell id="lyOyuYBK9qZ7ddT24PDy-30" value="" style="endArrow=none;html=1;rounded=0;exitX=0.5;exitY=0;exitDx=0;exitDy=0;" parent="1" source="Z48n8Z-hnVd7AuyeqPhM-3" edge="1">
          <mxGeometry width="50" height="50" relative="1" as="geometry">
            <mxPoint x="-310" y="320" as="sourcePoint" />
            <mxPoint x="-260" y="270" as="targetPoint" />
          </mxGeometry>
        </mxCell>
        <mxCell id="lyOyuYBK9qZ7ddT24PDy-33" value="" style="endArrow=none;html=1;rounded=0;exitX=0.5;exitY=0;exitDx=0;exitDy=0;entryX=0.5;entryY=1;entryDx=0;entryDy=0;" parent="1" source="Z48n8Z-hnVd7AuyeqPhM-10" target="Z48n8Z-hnVd7AuyeqPhM-3" edge="1">
          <mxGeometry width="50" height="50" relative="1" as="geometry">
            <mxPoint x="-275" y="377.5" as="sourcePoint" />
            <mxPoint x="-225" y="327.5" as="targetPoint" />
          </mxGeometry>
        </mxCell>
        <mxCell id="lyOyuYBK9qZ7ddT24PDy-34" value="" style="endArrow=none;html=1;rounded=0;exitX=0;exitY=0;exitDx=0;exitDy=0;entryX=0.75;entryY=1;entryDx=0;entryDy=0;" parent="1" source="Z48n8Z-hnVd7AuyeqPhM-9" target="Z48n8Z-hnVd7AuyeqPhM-3" edge="1">
          <mxGeometry width="50" height="50" relative="1" as="geometry">
            <mxPoint x="-230" y="370" as="sourcePoint" />
            <mxPoint x="-180" y="320" as="targetPoint" />
          </mxGeometry>
        </mxCell>
        <mxCell id="lyOyuYBK9qZ7ddT24PDy-35" value="" style="endArrow=none;html=1;rounded=0;exitX=1;exitY=1;exitDx=0;exitDy=0;entryX=0.5;entryY=0;entryDx=0;entryDy=0;" parent="1" source="Z48n8Z-hnVd7AuyeqPhM-3" target="Z48n8Z-hnVd7AuyeqPhM-8" edge="1">
          <mxGeometry width="50" height="50" relative="1" as="geometry">
            <mxPoint x="-210" y="350" as="sourcePoint" />
            <mxPoint x="-160" y="300" as="targetPoint" />
          </mxGeometry>
        </mxCell>
        <mxCell id="lyOyuYBK9qZ7ddT24PDy-36" value="" style="endArrow=none;html=1;rounded=0;exitX=1;exitY=0;exitDx=0;exitDy=0;entryX=0;entryY=1;entryDx=0;entryDy=0;" parent="1" source="Z48n8Z-hnVd7AuyeqPhM-3" target="Z48n8Z-hnVd7AuyeqPhM-5" edge="1">
          <mxGeometry width="50" height="50" relative="1" as="geometry">
            <mxPoint x="-210" y="340" as="sourcePoint" />
            <mxPoint x="-160" y="290" as="targetPoint" />
          </mxGeometry>
        </mxCell>
        <mxCell id="lyOyuYBK9qZ7ddT24PDy-37" value="" style="endArrow=none;html=1;rounded=0;exitX=1;exitY=0.5;exitDx=0;exitDy=0;entryX=0;entryY=0.5;entryDx=0;entryDy=0;" parent="1" source="Z48n8Z-hnVd7AuyeqPhM-3" target="Z48n8Z-hnVd7AuyeqPhM-6" edge="1">
          <mxGeometry width="50" height="50" relative="1" as="geometry">
            <mxPoint x="-180" y="340" as="sourcePoint" />
            <mxPoint x="-130" y="290" as="targetPoint" />
          </mxGeometry>
        </mxCell>
        <mxCell id="lyOyuYBK9qZ7ddT24PDy-38" value="" style="endArrow=none;html=1;rounded=0;exitX=1;exitY=0.75;exitDx=0;exitDy=0;entryX=0;entryY=0.5;entryDx=0;entryDy=0;" parent="1" source="Z48n8Z-hnVd7AuyeqPhM-3" target="Z48n8Z-hnVd7AuyeqPhM-7" edge="1">
          <mxGeometry width="50" height="50" relative="1" as="geometry">
            <mxPoint x="-170" y="350" as="sourcePoint" />
            <mxPoint x="-120" y="300" as="targetPoint" />
          </mxGeometry>
        </mxCell>
        <mxCell id="lyOyuYBK9qZ7ddT24PDy-41" value="" style="endArrow=none;html=1;rounded=0;exitX=1;exitY=0.5;exitDx=0;exitDy=0;" parent="1" source="lyOyuYBK9qZ7ddT24PDy-43" edge="1">
          <mxGeometry width="50" height="50" relative="1" as="geometry">
            <mxPoint x="-735" y="172.5" as="sourcePoint" />
            <mxPoint x="-580" y="190" as="targetPoint" />
          </mxGeometry>
        </mxCell>
        <mxCell id="lyOyuYBK9qZ7ddT24PDy-43" value="has" style="rhombus;whiteSpace=wrap;html=1;" parent="1" vertex="1">
          <mxGeometry x="-790" y="120" width="60" height="50" as="geometry" />
        </mxCell>
        <mxCell id="lyOyuYBK9qZ7ddT24PDy-44" value="" style="endArrow=none;html=1;rounded=0;entryX=0.5;entryY=1;entryDx=0;entryDy=0;exitX=0.5;exitY=0;exitDx=0;exitDy=0;" parent="1" source="lyOyuYBK9qZ7ddT24PDy-43" target="Z48n8Z-hnVd7AuyeqPhM-40" edge="1">
          <mxGeometry width="50" height="50" relative="1" as="geometry">
            <mxPoint x="-790" y="140" as="sourcePoint" />
            <mxPoint x="-740" y="90" as="targetPoint" />
          </mxGeometry>
        </mxCell>
        <mxCell id="lyOyuYBK9qZ7ddT24PDy-46" value="" style="endArrow=none;html=1;rounded=0;exitX=0.75;exitY=1;exitDx=0;exitDy=0;" parent="1" source="Z48n8Z-hnVd7AuyeqPhM-18" edge="1">
          <mxGeometry width="50" height="50" relative="1" as="geometry">
            <mxPoint x="-480" y="170" as="sourcePoint" />
            <mxPoint x="-430" y="120" as="targetPoint" />
          </mxGeometry>
        </mxCell>
        <mxCell id="lyOyuYBK9qZ7ddT24PDy-49" value="" style="endArrow=none;html=1;rounded=0;exitX=0.5;exitY=0;exitDx=0;exitDy=0;entryX=0.5;entryY=0.75;entryDx=0;entryDy=0;entryPerimeter=0;" parent="1" target="Z48n8Z-hnVd7AuyeqPhM-14" edge="1">
          <mxGeometry width="50" height="50" relative="1" as="geometry">
            <mxPoint x="-207.5" y="120" as="sourcePoint" />
            <mxPoint x="-210" y="90" as="targetPoint" />
          </mxGeometry>
        </mxCell>
        <mxCell id="lyOyuYBK9qZ7ddT24PDy-50" value="" style="endArrow=none;html=1;rounded=0;exitX=0.75;exitY=0;exitDx=0;exitDy=0;entryX=0.5;entryY=1;entryDx=0;entryDy=0;" parent="1" source="Z48n8Z-hnVd7AuyeqPhM-3" edge="1">
          <mxGeometry width="50" height="50" relative="1" as="geometry">
            <mxPoint x="-280" y="240" as="sourcePoint" />
            <mxPoint x="-207.5" y="180" as="targetPoint" />
          </mxGeometry>
        </mxCell>
        <mxCell id="lyOyuYBK9qZ7ddT24PDy-56" value="" style="endArrow=none;html=1;rounded=0;exitX=0.5;exitY=0;exitDx=0;exitDy=0;entryX=0.5;entryY=1;entryDx=0;entryDy=0;" parent="1" source="Z48n8Z-hnVd7AuyeqPhM-29" target="Z48n8Z-hnVd7AuyeqPhM-27" edge="1">
          <mxGeometry width="50" height="50" relative="1" as="geometry">
            <mxPoint x="-810" y="530" as="sourcePoint" />
            <mxPoint x="-760" y="480" as="targetPoint" />
          </mxGeometry>
        </mxCell>
        <mxCell id="lyOyuYBK9qZ7ddT24PDy-57" value="" style="endArrow=none;html=1;rounded=0;exitX=0.5;exitY=0;exitDx=0;exitDy=0;entryX=0.5;entryY=1;entryDx=0;entryDy=0;" parent="1" target="Z48n8Z-hnVd7AuyeqPhM-35" edge="1">
          <mxGeometry width="50" height="50" relative="1" as="geometry">
            <mxPoint x="-745" y="315" as="sourcePoint" />
            <mxPoint x="-750" y="300" as="targetPoint" />
          </mxGeometry>
        </mxCell>
        <mxCell id="lyOyuYBK9qZ7ddT24PDy-58" value="" style="endArrow=none;html=1;rounded=0;entryX=0.5;entryY=1;entryDx=0;entryDy=0;exitX=0.5;exitY=0;exitDx=0;exitDy=0;" parent="1" source="Z48n8Z-hnVd7AuyeqPhM-23" target="Z48n8Z-hnVd7AuyeqPhM-25" edge="1">
          <mxGeometry width="50" height="50" relative="1" as="geometry">
            <mxPoint x="-580" y="440" as="sourcePoint" />
            <mxPoint x="-530" y="390" as="targetPoint" />
          </mxGeometry>
        </mxCell>
        <mxCell id="lyOyuYBK9qZ7ddT24PDy-59" value="" style="endArrow=none;html=1;rounded=0;exitX=0.25;exitY=0;exitDx=0;exitDy=0;" parent="1" source="Z48n8Z-hnVd7AuyeqPhM-27" edge="1">
          <mxGeometry width="50" height="50" relative="1" as="geometry">
            <mxPoint x="-870" y="200" as="sourcePoint" />
            <mxPoint x="-820" y="140" as="targetPoint" />
          </mxGeometry>
        </mxCell>
        <mxCell id="lyOyuYBK9qZ7ddT24PDy-60" value="" style="endArrow=none;html=1;rounded=0;entryX=0;entryY=0.5;entryDx=0;entryDy=0;" parent="1" target="lyOyuYBK9qZ7ddT24PDy-43" edge="1">
          <mxGeometry width="50" height="50" relative="1" as="geometry">
            <mxPoint x="-820" y="140" as="sourcePoint" />
            <mxPoint x="-790" y="140" as="targetPoint" />
          </mxGeometry>
        </mxCell>
        <mxCell id="lyOyuYBK9qZ7ddT24PDy-61" value="" style="endArrow=none;html=1;rounded=0;exitX=1;exitY=1;exitDx=0;exitDy=0;entryX=0;entryY=0.5;entryDx=0;entryDy=0;" parent="1" source="Z48n8Z-hnVd7AuyeqPhM-27" target="Z48n8Z-hnVd7AuyeqPhM-28" edge="1">
          <mxGeometry width="50" height="50" relative="1" as="geometry">
            <mxPoint x="-750" y="630" as="sourcePoint" />
            <mxPoint x="-700" y="580" as="targetPoint" />
          </mxGeometry>
        </mxCell>
        <mxCell id="lyOyuYBK9qZ7ddT24PDy-62" value="" style="endArrow=none;html=1;rounded=0;exitX=1;exitY=0.5;exitDx=0;exitDy=0;" parent="1" source="Z48n8Z-hnVd7AuyeqPhM-27" target="Z48n8Z-hnVd7AuyeqPhM-30" edge="1">
          <mxGeometry width="50" height="50" relative="1" as="geometry">
            <mxPoint x="-770" y="455" as="sourcePoint" />
            <mxPoint x="-702.5" y="440" as="targetPoint" />
          </mxGeometry>
        </mxCell>
        <mxCell id="Z48n8Z-hnVd7AuyeqPhM-30" value="blog_id" style="ellipse;whiteSpace=wrap;html=1;" parent="1" vertex="1">
          <mxGeometry x="-754" y="430" width="50" height="30" as="geometry" />
        </mxCell>
        <mxCell id="lyOyuYBK9qZ7ddT24PDy-65" value="id" style="ellipse;whiteSpace=wrap;html=1;" parent="1" vertex="1">
          <mxGeometry x="-780" y="310" width="40" height="20" as="geometry" />
        </mxCell>
        <mxCell id="lyOyuYBK9qZ7ddT24PDy-67" value="" style="endArrow=none;html=1;rounded=0;exitX=0.75;exitY=1;exitDx=0;exitDy=0;" parent="1" source="Z48n8Z-hnVd7AuyeqPhM-35" edge="1">
          <mxGeometry width="50" height="50" relative="1" as="geometry">
            <mxPoint x="-680" y="430" as="sourcePoint" />
            <mxPoint x="-710" y="320" as="targetPoint" />
          </mxGeometry>
        </mxCell>
        <mxCell id="lyOyuYBK9qZ7ddT24PDy-69" value="" style="endArrow=none;html=1;rounded=0;entryX=0.5;entryY=1;entryDx=0;entryDy=0;exitX=0.25;exitY=0;exitDx=0;exitDy=0;" parent="1" source="Z48n8Z-hnVd7AuyeqPhM-35" target="lyOyuYBK9qZ7ddT24PDy-43" edge="1">
          <mxGeometry width="50" height="50" relative="1" as="geometry">
            <mxPoint x="-790" y="230" as="sourcePoint" />
            <mxPoint x="-740" y="180" as="targetPoint" />
          </mxGeometry>
        </mxCell>
        <mxCell id="lyOyuYBK9qZ7ddT24PDy-71" value="" style="endArrow=none;html=1;rounded=0;entryX=0;entryY=0;entryDx=0;entryDy=0;" parent="1" source="lyOyuYBK9qZ7ddT24PDy-43" target="Z48n8Z-hnVd7AuyeqPhM-23" edge="1">
          <mxGeometry width="50" height="50" relative="1" as="geometry">
            <mxPoint x="-660" y="280" as="sourcePoint" />
            <mxPoint x="-610" y="230" as="targetPoint" />
          </mxGeometry>
        </mxCell>
        <mxCell id="lyOyuYBK9qZ7ddT24PDy-72" value="content" style="rhombus;whiteSpace=wrap;html=1;" parent="1" vertex="1">
          <mxGeometry x="-250" y="105" width="80" height="75" as="geometry" />
        </mxCell>
        <mxCell id="lyOyuYBK9qZ7ddT24PDy-73" value="" style="endArrow=none;html=1;rounded=0;exitX=1;exitY=0.5;exitDx=0;exitDy=0;entryX=0;entryY=0.5;entryDx=0;entryDy=0;" parent="1" source="Z48n8Z-hnVd7AuyeqPhM-18" target="lyOyuYBK9qZ7ddT24PDy-72" edge="1">
          <mxGeometry width="50" height="50" relative="1" as="geometry">
            <mxPoint x="-330" y="150" as="sourcePoint" />
            <mxPoint x="-280" y="100" as="targetPoint" />
          </mxGeometry>
        </mxCell>
        <mxCell id="07rQKL17OYbKziA-cIwe-1" value="make" style="rhombus;whiteSpace=wrap;html=1;" vertex="1" parent="1">
          <mxGeometry x="-640" y="60" width="50" height="35" as="geometry" />
        </mxCell>
        <mxCell id="07rQKL17OYbKziA-cIwe-3" value="" style="endArrow=none;html=1;rounded=0;exitX=1;exitY=0.5;exitDx=0;exitDy=0;entryX=0;entryY=0.5;entryDx=0;entryDy=0;" edge="1" parent="1" source="07rQKL17OYbKziA-cIwe-1" target="Z48n8Z-hnVd7AuyeqPhM-18">
          <mxGeometry width="50" height="50" relative="1" as="geometry">
            <mxPoint x="-450" y="350" as="sourcePoint" />
            <mxPoint x="-400" y="300" as="targetPoint" />
            <Array as="points">
              <mxPoint x="-550" y="80" />
            </Array>
          </mxGeometry>
        </mxCell>
        <mxCell id="07rQKL17OYbKziA-cIwe-4" value="" style="endArrow=none;html=1;rounded=0;entryX=0;entryY=0.5;entryDx=0;entryDy=0;" edge="1" parent="1" target="07rQKL17OYbKziA-cIwe-1">
          <mxGeometry width="50" height="50" relative="1" as="geometry">
            <mxPoint x="-740" y="80" as="sourcePoint" />
            <mxPoint x="-685" y="35" as="targetPoint" />
          </mxGeometry>
        </mxCell>
      </root>
    </mxGraphModel>
  </diagram>
</mxfile>
